<?xml version="1.0" encoding="utf-8"?>
<!-- Generator: Adobe Illustrator 26.0.1, SVG Export Plug-In . SVG Version: 6.00 Build 0)  -->
<svg version="1.1" id="Layer_1" xmlns="http://www.w3.org/2000/svg" xmlns:xlink="http://www.w3.org/1999/xlink" x="0px" y="0px"
	 viewBox="0 0 566.93 566.93" style="enable-background:new 0 0 566.93 566.93;" xml:space="preserve">
<style type="text/css">
	.st0{fill:#65B2E8;}
	.st1{clip-path:url(#SVGID_00000062899488675313524750000006997585960051330745_);fill:#282829;}
</style>
<path class="st0" d="M298.37,274.37l-22.91,23.89h35.82v-23.89H298.37z M204.41,244.92h-2.18h-49.42h-3.96l-7.17,7.06v4.87
	l-0.02,0.02v0.02l0,0v43.05h-8.68h-3.9h-3.96l-7.17,6.76v17.13h15.03h22.01h2.22h21.25h37.07v-17.13l-7.17-6.76h-3.96h-25.94h-5.73
	v-0.01l-7.17-7.06v-15.26l7.17-8.81h29.5h2.18h3.96l7.17-7.06v-2.92v-4.6v-2.25l-7.17-7.06H204.41z M436.99,244.92h-2.18H385.4
	h-3.96l-7.17,7.06v4.87l-0.02,0.02v0.02l0,0v43.05h-8.68h-3.9h-3.96l-7.17,6.76v17.13h15.03h22.01h2.22h21.25h37.08v-17.13
	l-7.17-6.76h-3.96h-25.94h-5.73v-0.01l-7.17-7.06v-15.26l7.17-8.81h29.5h2.18h3.96l7.17-7.06v-2.92v-4.6v-2.25l-7.17-7.06H436.99z
	 M341.42,229.28l-22.46,23.43v54.41v3.35v13.36h10.43v0h13.45v-23.89v-72.12L341.42,229.28z M266.33,199.67l-7.17,7.06v4.88
	l-0.01,0.01l0.01,0.01v14.95v31.46l23.89-24.91v-21.5l0.01-0.01l-0.04-0.04v-11.92H266.33z"/>
<g>
	<defs>
		<rect id="SVGID_1_" x="33.35" y="199.67" width="499.39" height="168.19"/>
	</defs>
	<clipPath id="SVGID_00000106846217697916156630000005650253467188193177_">
		<use xlink:href="#SVGID_1_"  style="overflow:visible;"/>
	</clipPath>
	<path style="clip-path:url(#SVGID_00000106846217697916156630000005650253467188193177_);fill:#282829;" d="M322,346.11
		c-1.04,1.48-1.56,3.56-1.56,6.18c0,1.94,0.23,3.54,0.69,4.76c0.49,1.29,1.3,2.26,2.41,2.87c1.08,0.6,2.51,0.9,4.24,0.9
		c1.16,0,2.88-0.18,5.11-0.52l0.57-0.09l-0.15-3.52l-4.53,0.32c-1.13,0-1.98-0.15-2.52-0.44c-0.5-0.27-0.84-0.68-1.04-1.28
		c-0.23-0.68-0.35-1.67-0.35-2.97c0-1.33,0.12-2.36,0.35-3.06c0.2-0.6,0.54-1.02,1.03-1.26c0.55-0.28,1.37-0.42,2.44-0.42
		c0.76,0,2.08,0.08,3.93,0.24l0.66,0.06l0.15-3.46l-0.55-0.1c-1.24-0.22-2.25-0.37-3.01-0.45c-0.74-0.07-1.45-0.11-2.12-0.11
		C325.02,343.76,323.09,344.55,322,346.11 M306.99,350.63c0.09-1.07,0.36-1.87,0.8-2.37c0.51-0.57,1.38-0.86,2.58-0.86
		c1.12,0,1.91,0.27,2.35,0.8c0.39,0.47,0.62,1.3,0.68,2.43H306.99z M304.49,346.03c-1.26,1.47-1.9,3.71-1.9,6.66
		c0,2.75,0.6,4.81,1.79,6.12c1.21,1.33,3.2,2.01,5.92,2.01c1.61,0,3.76-0.21,6.38-0.61l0.56-0.09l-0.1-3.42l-1.6,0.15
		c-0.68,0.06-1.44,0.1-2.29,0.13c-2.22,0.08-3.87,0.07-4.79-0.3c-0.49-0.2-0.84-0.52-1.06-0.97c-0.19-0.39-0.31-0.93-0.37-1.6h10.5
		l0.26-2.69c0-5.01-2.56-7.65-7.42-7.65C307.75,343.76,305.77,344.53,304.49,346.03 M306.06,338.8h-17.89v3.85h6.74v18.17h4.47
		v-18.17h6.68V338.8z M275.94,345.1h-4.34v15.78h4.34V345.1z M271.6,343.13h4.35v-4.35h-4.35V343.13z M258.07,343.9h-4.31v16.97
		h4.34v-12.56l0.09-0.04c1.1-0.43,2.16-0.65,3.16-0.65c0.64,0,1.11,0.11,1.41,0.33c0.28,0.21,0.48,0.59,0.6,1.13
		c0.14,0.66,0.22,1.63,0.22,2.87v8.92h4.34v-8.98c0-1.95-0.16-3.46-0.49-4.62c-0.36-1.25-0.99-2.19-1.87-2.8
		c-0.87-0.6-2.04-0.91-3.49-0.91c-0.87,0-1.71,0.11-2.5,0.34c-0.47,0.13-0.97,0.32-1.49,0.57V343.9z M240.82,355.25
		c0-0.59,0.13-1.02,0.37-1.28c0.26-0.27,0.71-0.44,1.32-0.51l3.24-0.3v3.24l-0.15,0.05c-1.1,0.37-2.25,0.55-3.43,0.55
		C241.52,357,240.82,356.86,240.82,355.25 M237.83,351.43c-0.94,0.85-1.42,2.17-1.42,3.91c0,1.73,0.45,3.1,1.34,4.06
		c0.9,0.98,2.21,1.47,3.88,1.47c1.72,0,3.46-0.37,5.17-1.1c0.46,0.33,0.98,0.59,1.53,0.77c0.69,0.22,1.53,0.33,2.49,0.33h0.7
		l0.15-3.58l-0.64-0.1c-0.51-0.08-0.7-0.21-0.76-0.27c-0.1-0.09-0.16-0.24-0.18-0.45v-7.44c0-1.95-0.49-3.42-1.46-4.38
		c-0.97-0.95-2.47-1.44-4.48-1.44c-1.93,0-4.04,0.27-6.28,0.79l-0.59,0.14l0.15,3.49l0.77-0.08c2.24-0.24,4.24-0.37,5.94-0.37
		c0.56,0,0.97,0.13,1.22,0.38c0.25,0.26,0.38,0.76,0.38,1.46v0.55l-3.75,0.34C240.11,350.11,238.75,350.6,237.83,351.43
		 M208.19,352.09l-4.07,4.24h6.72v-4.24H208.19z M131.27,352.09l-4.07,4.24h6.71v-4.24H131.27z M93.3,323.83h16.97v-17.21v-0.02
		l-43.31-44.86l43.31-44.86l-0.01-0.01h0.01v-17.21H93.3v0.01l-0.01-0.01l-59.35,61.48l-0.59,0.6l0.01,0.01l-0.01,0.01l0.59,0.6
		L93.3,323.83L93.3,323.83L93.3,323.83z M139.21,341.86L139.21,341.86L139.21,341.86v-3.05h-3.03v0.01l-10.61,11.07l0,0l-7.61,7.94
		l0,0.01h0v3.04h3.03l0.01-0.01l10.61-11.07l0,0L139.21,341.86z M136.82,360.88h2.39v-4.24v-12.82l-0.25,0.26l-3.99,4.16v9.67v0.6
		v2.38H136.82z M142.87,360.88h4.34v-22.07h-4.34V360.88z M160.22,356.4l-0.15,0.05c-1.1,0.37-2.25,0.55-3.43,0.55
		c-0.65,0-1.35-0.14-1.35-1.76c0-0.59,0.13-1.02,0.38-1.28c0.26-0.27,0.71-0.44,1.32-0.51l3.24-0.3V356.4z M165.99,360.88l0.15-3.58
		l-0.64-0.1c-0.51-0.08-0.7-0.21-0.76-0.27c-0.1-0.09-0.16-0.24-0.18-0.45v-7.44c0-1.95-0.49-3.42-1.46-4.38
		c-0.97-0.95-2.47-1.44-4.48-1.44c-1.93,0-4.04,0.27-6.28,0.79l-0.59,0.14l0.15,3.49l0.77-0.08c2.24-0.24,4.24-0.37,5.94-0.37
		c0.56,0,0.97,0.13,1.22,0.39c0.25,0.26,0.38,0.76,0.38,1.46v0.55l-3.75,0.34c-1.9,0.18-3.26,0.67-4.17,1.5
		c-0.94,0.85-1.42,2.17-1.42,3.91c0,1.73,0.45,3.1,1.34,4.06c0.9,0.98,2.21,1.47,3.89,1.47c1.72,0,3.45-0.37,5.17-1.1
		c0.46,0.33,0.97,0.59,1.53,0.77c0.69,0.22,1.52,0.33,2.49,0.33H165.99z M177.61,356.4l-0.15,0.05c-1.1,0.37-2.25,0.55-3.43,0.55
		c-0.65,0-1.35-0.14-1.35-1.76c0-0.59,0.13-1.02,0.38-1.28c0.26-0.27,0.71-0.44,1.32-0.51l3.24-0.3V356.4z M183.38,360.88l0.15-3.58
		l-0.64-0.1c-0.51-0.08-0.7-0.21-0.76-0.27c-0.1-0.09-0.16-0.24-0.18-0.45v-7.44c0-1.95-0.49-3.42-1.46-4.38
		c-0.96-0.95-2.47-1.44-4.48-1.44c-1.93,0-4.04,0.27-6.28,0.79l-0.59,0.14l0.15,3.49l0.77-0.08c2.24-0.24,4.24-0.37,5.94-0.37
		c0.56,0,0.97,0.13,1.22,0.39c0.25,0.26,0.38,0.76,0.38,1.46v0.55l-3.75,0.34c-1.9,0.18-3.26,0.67-4.17,1.5
		c-0.94,0.85-1.42,2.17-1.42,3.91c0,1.73,0.45,3.1,1.34,4.06c0.91,0.98,2.21,1.47,3.89,1.47c1.72,0,3.45-0.37,5.17-1.1
		c0.46,0.33,0.98,0.59,1.53,0.77c0.69,0.22,1.52,0.33,2.49,0.33H183.38z M216.12,341.86L216.12,341.86L216.12,341.86v-3.05h-3.03
		v0.01l-10.61,11.07l0,0l-7.61,7.94l0.01,0.01h-0.01v3.04h3.03l0.01-0.01l10.61-11.07l0,0L216.12,341.86z M213.73,360.88h2.39v-4.24
		v-12.82l-0.25,0.26l-3.99,4.16v9.67v0.6v2.38H213.73z M232.77,343.9H219.8v4.03h7.25l-7.25,9.39v3.55h12.97v-4.03h-7.28l7.28-9.39
		V343.9z M342.85,216.83l-0.03-0.03h0.03v-17.13h-17.07v0.03l-59.7,62.27l0.01,0.01l-42.84,44.69l0,0.02l0,0.01v17.13h17.04
		l0.03-0.03l59.7-62.27l-0.01-0.01L342.85,216.83z M346.62,360.82h4.37v-8.68c0-1.87-0.18-3.39-0.53-4.51
		c-0.38-1.21-1.04-2.12-1.97-2.7c-0.9-0.55-2.13-0.84-3.66-0.84c-0.86,0-1.71,0.1-2.54,0.29c-0.56,0.13-1.16,0.32-1.81,0.56v-6.17
		h-4.37v22.05h4.37v-12.33l0.12-0.04c1.15-0.36,2.27-0.55,3.33-0.55c0.78,0,1.36,0.12,1.73,0.36c0.34,0.21,0.57,0.57,0.7,1.1
		c0.16,0.63,0.25,1.58,0.25,2.83V360.82z M364.14,360.82h4.37v-8.68c0-1.87-0.18-3.38-0.53-4.5c-0.38-1.2-1.04-2.11-1.96-2.69
		c-0.9-0.57-2.12-0.85-3.63-0.85c-0.91,0-1.79,0.11-2.62,0.32c-0.55,0.14-1.15,0.36-1.79,0.64v-0.63h-4.33v16.39h4.37v-12.19
		l0.14-0.06c1.21-0.43,2.38-0.66,3.47-0.66c0.73,0,1.27,0.12,1.61,0.36c0.32,0.22,0.54,0.59,0.67,1.14c0.15,0.64,0.23,1.58,0.23,2.8
		V360.82z M382.52,352.35c0,1.3-0.11,2.31-0.33,3.01c-0.2,0.62-0.51,1.05-0.96,1.31c-0.49,0.28-1.21,0.43-2.15,0.43
		c-0.95,0-1.68-0.14-2.17-0.43c-0.46-0.26-0.77-0.69-0.97-1.32c-0.22-0.71-0.34-1.72-0.34-3c0-1.34,0.12-2.39,0.35-3.11
		c0.2-0.64,0.53-1.08,0.98-1.33c0.5-0.28,1.22-0.42,2.15-0.42c0.92,0,1.64,0.14,2.13,0.42c0.44,0.25,0.76,0.68,0.97,1.32
		C382.4,349.94,382.52,350.99,382.52,352.35 M385.13,358.7c1.23-1.38,1.85-3.52,1.85-6.35c0-2.89-0.63-5.06-1.87-6.46
		c-1.26-1.41-3.29-2.13-6.04-2.13c-2.72,0-4.75,0.71-6.02,2.11c-1.26,1.38-1.89,3.56-1.89,6.47c0,2.85,0.62,4.99,1.86,6.37
		c1.25,1.39,3.29,2.1,6.06,2.1S383.88,360.11,385.13,358.7 M389.64,360.82H394v-22h-4.37V360.82z M408.02,352.35
		c0,1.3-0.11,2.31-0.34,3.01c-0.2,0.62-0.51,1.05-0.96,1.31c-0.49,0.28-1.21,0.43-2.15,0.43c-0.94,0-1.68-0.14-2.17-0.43
		c-0.46-0.26-0.77-0.69-0.97-1.32c-0.22-0.71-0.34-1.71-0.34-3c0-1.34,0.12-2.39,0.35-3.11c0.2-0.64,0.52-1.08,0.98-1.33
		c0.5-0.28,1.22-0.42,2.15-0.42c0.92,0,1.64,0.14,2.13,0.42c0.45,0.25,0.76,0.68,0.97,1.32
		C407.9,349.94,408.02,350.99,408.02,352.35 M410.63,358.7c1.23-1.38,1.86-3.52,1.86-6.35c0-2.89-0.63-5.06-1.87-6.46
		c-1.26-1.41-3.3-2.13-6.04-2.13c-2.72,0-4.75,0.71-6.02,2.11c-1.26,1.38-1.89,3.56-1.89,6.47c0,2.85,0.62,4.99,1.86,6.37
		c1.25,1.39,3.29,2.1,6.06,2.1C407.34,360.82,409.38,360.11,410.63,358.7 M423.92,349.96c0,0.87-0.19,1.48-0.57,1.82
		c-0.39,0.35-1.14,0.53-2.15,0.53c-1.04,0-1.77-0.18-2.19-0.54c-0.39-0.34-0.59-0.93-0.59-1.78c0-0.85,0.2-1.46,0.6-1.8
		c0.42-0.37,1.15-0.55,2.19-0.55c1.01,0,1.73,0.18,2.14,0.54C423.73,348.51,423.92,349.11,423.92,349.96 M418.42,361.64
		c0.11-0.17,0.35-0.45,0.89-0.85l3.18,0.17c0.96,0.02,1.69,0.07,2.16,0.16c0.37,0.06,0.63,0.18,0.79,0.35
		c0.14,0.15,0.21,0.43,0.21,0.82c0,0.94-0.4,1.29-0.7,1.46c-0.39,0.23-1.26,0.5-3.18,0.5c-1.76,0-2.57-0.24-2.95-0.45
		c-0.27-0.15-0.63-0.44-0.63-1.27C418.19,362.17,418.27,361.88,418.42,361.64 M427.9,347.95l2.35,0.07v-3.64l-5.63,0.14
		c-1.25-0.26-2.41-0.39-3.45-0.39c-5.88,0-7.11,3.21-7.11,5.9c0,2.17,0.76,3.76,2.26,4.73c-0.32,0.51-0.54,0.9-0.66,1.15
		c-0.18,0.39-0.27,0.78-0.27,1.16c0,0.49,0.1,0.97,0.3,1.42c0.09,0.2,0.21,0.39,0.35,0.56c-0.7,0.54-1.2,1.03-1.52,1.48
		c-0.44,0.62-0.67,1.44-0.67,2.44c0,1.77,0.67,3.05,1.99,3.83c1.23,0.72,3.08,1.07,5.65,1.07c2.94,0,5.04-0.44,6.41-1.34
		c1.44-0.95,2.17-2.44,2.17-4.43c0-1.31-0.31-2.35-0.91-3.08c-0.6-0.72-1.45-1.21-2.52-1.44c-0.97-0.21-2.26-0.33-3.85-0.35h-1.16
		c-1.04,0-1.56-0.1-1.81-0.18c-0.13-0.04-0.21-0.08-0.21-0.33c0-0.09,0.03-0.35,0.28-0.96c0.36,0.04,0.77,0.06,1.24,0.06
		c2.4,0,4.13-0.42,5.31-1.29c1.22-0.9,1.84-2.37,1.84-4.37c0-0.75-0.09-1.39-0.27-1.89C427.98,348.15,427.94,348.05,427.9,347.95
		 M441.16,367.41l6.96-22.98h-4.43l-3.82,12.69l-3.83-12.69h-4.42l4.9,16.39h2.3l-2.06,6.59H441.16z M532.74,261.75L532.74,261.75
		l-0.58-0.6l-59.35-61.48l-0.01,0.01v-0.01h-16.97v17.21h0.02l-0.02,0.01l43.31,44.86l-43.31,44.86v0.02v17.21h16.97v-0.01
		l0.01,0.01l59.35-61.48L532.74,261.75L532.74,261.75z"/>
</g>
</svg>
